<svg xmlns="http://www.w3.org/2000/svg" data-name="Layer 4" x="0px" y="0px" viewBox="3 15 58 30"><polygon points="9.29 36 6.29 33 5.31 33 6.81 36 9.29 36"></polygon><polygon points="5.31 43 6.29 43 9.29 40 6.81 40 5.31 43"></polygon><path d="M57.8,32.71c-.83-.48-1.74-.84-2.6-1.1-1.3-.41-2.73-.61-4.24-.61h-7.46c-.24,0-.45-.18-.49-.42l-.57-3.44c-.21-1.24-1.28-2.14-2.53-2.14h-6.96c-.59,0-1.1,.43-1.2,1.01l-.76,4.57c-.04,.24-.25,.42-.49,.42h-12.5c-1.39,0-2.76,.36-4,1.02v.98H55.5l2.3-.29Zm-15.86-3.96c-.09,.15-.26,.25-.44,.25h-2c-.28,0-.5-.22-.5-.5v-1c0-.28,.22-.5,.5-.5h1.4c.18,0,.34,.09,.43,.24l.6,1c.09,.16,.09,.35,.01,.51Z"></path><path d="M59.05,33.56l-3.49,.44H13.5c-.28,0-.5-.22-.5-.5v-.92l-3.56,2.15,1.41,1.42c.15,.14,.19,.35,.11,.54s-.26,.31-.46,.31H6.5c-.18,0-.34-.1-.43-.26l-.07,.04v2.4l.1,.04c.09-.13,.23-.22,.4-.22h4c.2,0,.38,.12,.46,.31s.04,.4-.11,.54l-1.07,1.08,5.21,2.4c2.42,1.11,4.98,1.67,7.63,1.67h28.35c.44,0,.82-.03,1.19-.1,2.66-.46,8.84-2.1,8.84-7.4,0-1.71-.81-2.99-1.95-3.94Zm-17.05,1.94c0-.28,.22-.5,.5-.5h2c.28,0,.5,.22,.5,.5v1c0,.28-.22,.5-.5,.5h-2c-.28,0-.5-.22-.5-.5v-1Zm-5,0c0-.28,.22-.5,.5-.5h2c.28,0,.5,.22,.5,.5v1c0,.28-.22,.5-.5,.5h-2c-.28,0-.5-.22-.5-.5v-1Zm-20.5,1.5h-1c-.28,0-.5-.22-.5-.5s.22-.5,.5-.5h1c.28,0,.5,.22,.5,.5s-.22,.5-.5,.5Zm3,0h-1c-.28,0-.5-.22-.5-.5s.22-.5,.5-.5h1c.28,0,.5,.22,.5,.5s-.22,.5-.5,.5Zm29.35,5.85c-.73,.73-1.73,1.15-2.76,1.15h-5.59c-.28,0-.5-.22-.5-.5v-.5H21.5c-.28,0-.5-.22-.5-.5s.22-.5,.5-.5h27c.2,0,.38,.12,.46,.31s.04,.4-.11,.54Zm1.15-6.35c0,.28-.22,.5-.5,.5h-2c-.28,0-.5-.22-.5-.5v-1c0-.28,.22-.5,.5-.5h2c.28,0,.5,.22,.5,.5v1Zm5,0c0,.28-.22,.5-.5,.5h-2c-.28,0-.5-.22-.5-.5v-1c0-.28,.22-.5,.5-.5h2c.28,0,.5,.22,.5,.5v1Z"></path><path d="M34,15.5c0-.28-.22-.5-.5-.5s-.5,.22-.5,.5v8.5h1V15.5Z"></path><polygon points="36.86 24 37.38 24 36.5 20.5 35.5 20.5 35.5 24 36 24 36.86 24"></polygon><path d="M39,17.5c0-.28-.22-.5-.5-.5s-.5,.22-.5,.5v6.5h1v-6.5Z"></path><path d="M4.5,35c-.28,0-.5,.22-.5,.5v1.5h-1v2h1v1.5c0,.28,.22,.5,.5,.5s.5-.22,.5-.5v-5c0-.28-.22-.5-.5-.5Z"></path></svg>