<svg xmlns="http://www.w3.org/2000/svg" xmlns:xlink="http://www.w3.org/1999/xlink" version="1.1" x="0px" y="0px" enable-background="new 0 0 100 100" xml:space="preserve" viewBox="0.76 33.5 98.48 33"><g><path d="M91.4609375,36.2519531l-16.6616211,0.3847656l-4.3696289,5.7421875L59.012207,42.484375v-1.4433594   c0-1.6542969-1.3457031-3-3-3h-4.4584961V34.5c0-0.5527344-0.4477539-1-1-1h-16.125c-0.5522461,0-1,0.4472656-1,1v3.5410156   h-4.8330078c-1.6542969,0-3,1.3457031-3,3v11.3222656l-2.5424805,0.0078125V50.875c0-0.5527344-0.4477539-1-1-1h-0.5932617   v-1.40625c0-0.5527344-0.4477539-1-1-1h-3.625c-0.5522461,0-1,0.4472656-1,1V48.5H0.762207v2h13.2109375   c-0.0473633,0.1152344-0.0756836,0.2421875-0.0756836,0.375v1.5273438l-12.140625,0.0410156L9.331543,66.5h77.7841797   L99.237793,34.9824219L91.4609375,36.2519531z M21.0532227,51.875v0.5h-5.1557617v-0.5H21.0532227z M17.8349609,49.46875h1.625   V49.875h-1.625V49.46875z M71.4277344,44.3691406l3.293457-4.328125h20.4272461L91.5830078,49.3125H37.2460938l0.890625-0.9609375   l16.0600586-0.8710938l3.480957-2.984375L71.4277344,44.3691406z M35.4287109,35.5h14.125v2.5410156h-14.125V35.5z    M27.5957031,41.0410156c0-0.5507813,0.4487305-1,1-1H56.012207c0.5512695,0,1,0.4492188,1,1v1.4609375h-0.0825195   l-3.519043,3.0175781l-16.1899414,0.8789063l-3.1875,3.4375l-0.1352539,2.5l-6.3022461,0.0214844V41.0410156z M85.7416992,64.5   H10.5258789l-5.425293-10.0683594l30.6918945-0.1015625l0.0571289-1.0488281h54.2070313L85.7416992,64.5z"></path><rect x="57.5952148" y="46.0410156" width="3.2919922" height="2"></rect><rect x="62.8452148" y="46.0410156" width="3.625" height="2"></rect><rect x="7.3349609" y="54.9375" width="2" height="1.5625"></rect><rect x="9.5224609" y="54.9375" width="2" height="1.5625"></rect><rect x="11.7099609" y="54.9375" width="2" height="1.5625"></rect><rect x="13.8974609" y="54.9375" width="2" height="1.5625"></rect><rect x="16.1787109" y="54.9375" width="2" height="1.5625"></rect><rect x="18.3662109" y="54.9375" width="2" height="1.5625"></rect><rect x="20.5537109" y="54.9375" width="2" height="1.5625"></rect><rect x="22.7412109" y="54.9375" width="2" height="1.5625"></rect><path d="M54.012207,44.4160156V42c0-0.5527344-0.4477539-1-1-1H31.4287109c-0.5522461,0-1,0.4472656-1,1v2.4160156   c0,0.5527344,0.4477539,1,1,1H53.012207C53.5644531,45.4160156,54.012207,44.96875,54.012207,44.4160156z M46.012207,43v0.4160156   h-8.25V43H46.012207z M32.4287109,43h3.3334961v0.4160156h-3.3334961V43z M52.012207,43.4160156h-4V43h4V43.4160156z"></path></g></svg>